<?xml version="1.0" encoding="UTF-8"?>
<svg width="72px" height="26px" viewBox="0 0 72 26" version="1.1" xmlns="http://www.w3.org/2000/svg" xmlns:xlink="http://www.w3.org/1999/xlink">
    <!-- Generator: Sketch 46.2 (44496) - http://www.bohemiancoding.com/sketch -->
    <title>Combined Shape</title>
    <desc>Created with Sketch.</desc>
    <defs></defs>
    <g id="Page-1" stroke="none" stroke-width="1" fill="none" fill-rule="evenodd">
        <g id="悦完美-企业版登录" transform="translate(-135.000000, -19.000000)" fill="#FF7390">
            <g id="0导航">
                <path d="M144.731797,33.3753206 L144.731797,27.2736983 C145.003088,27.0488706 145.390482,26.8035317 145.893335,26.5382594 C146.396187,26.272915 146.950602,26.1402428 147.557725,26.1402428 L153.951454,26.1402428 C154.12708,26.1402428 154.266633,26.204665 154.370689,26.3331483 C154.474243,26.4621372 154.526235,26.6145983 154.526235,26.7914706 L154.526235,32.5795761 C154.526235,32.8049094 154.454307,32.9936261 154.310809,33.1463039 C154.167096,33.2991983 153.983367,33.3753206 153.759908,33.3753206 L144.731797,33.3753206 Z M156.310315,43.2516372 C156.637327,42.9862928 156.888753,42.6207039 157.064665,42.1542206 L157.830992,42.2990261 C157.719191,43.0707928 157.463534,43.7136428 157.064665,44.2284428 C156.66551,44.7428094 156.218307,44.9999928 155.723558,44.9999928 L153.568291,44.9999928 C153.185343,44.9999928 152.829645,44.9278428 152.502633,44.7831094 C152.175406,44.6383039 151.883749,44.4412094 151.628594,44.192115 C151.373008,43.9425872 151.173574,43.6533372 151.030076,43.3240039 C150.886291,42.9942372 150.814434,42.6448983 150.814434,42.2748317 L150.814434,34.1712817 L148.683191,34.1712817 C148.587311,36.953065 147.988721,39.2321817 146.887064,41.0086317 C145.785622,42.7849372 144.085159,44.1155594 141.786394,44.9999928 L141.355327,44.0834928 C142.201183,43.649365 142.931725,43.1266206 143.54645,42.5159094 C144.16096,41.904765 144.671916,41.1934483 145.079175,40.3813817 C145.486147,39.5698928 145.801327,38.6490594 146.025072,37.6201094 C146.248243,36.5913761 146.399916,35.4415983 146.480092,34.1712817 L142.815908,34.1712817 L142.815908,25.3684039 L144.731797,25.3684039 L144.731797,26.2849761 C145.05092,26.0599317 145.441972,25.8509206 145.905311,25.658015 C146.368004,25.4650372 146.934896,25.3684039 147.605558,25.3684039 L149.099271,25.3684039 C149.56261,24.8289761 150.829494,23.3788261 151.092323,23.0908761 C151.09641,23.0863261 151.510697,22.6316872 151.846386,22.198715 C151.952163,22.0622872 152.051199,21.9215261 152.149159,21.7682706 C152.179494,21.720965 152.20696,21.6758983 152.235072,21.628665 C152.388681,21.370615 152.460538,21.1894817 152.493526,21.0698817 C152.468426,21.0676428 152.438594,21.0661261 152.403382,21.0661261 C152.355048,21.0661261 152.30112,21.0688706 152.24296,21.0742872 C151.853414,21.115815 151.435972,21.2322372 151.007127,21.4195094 C150.5501,21.618915 150.076076,21.8442483 149.597892,22.089515 C149.107231,22.3414261 148.591183,22.5751372 148.064307,22.7842206 C147.514267,23.0024039 146.961215,23.1251817 146.420355,23.149015 C146.371375,23.1512539 146.321677,23.1524094 146.272124,23.1524094 C145.762028,23.1524094 145.242108,23.0315094 144.726849,22.7931039 C144.154434,22.5284817 143.586968,22.0333983 143.040442,21.3215761 L142.746275,20.9385094 L143.351104,20.2933483 C144.081717,19.5140706 145.176562,19.5152261 145.906028,20.296165 C146.138594,20.5584761 146.428745,20.8009261 146.76845,21.0167983 C147.08406,21.2179372 147.414586,21.3155094 147.779319,21.3155094 C148.347645,21.3155094 148.88449,21.1673094 149.37508,20.8749539 C149.926984,20.5462706 150.463183,20.2214872 150.968618,19.9094872 C151.506538,19.5774817 152.049478,19.3241261 152.582163,19.1564983 C152.792641,19.0904872 153.009861,19.0570483 153.228084,19.0570483 C153.625088,19.0570483 154.037367,19.1676206 154.453375,19.3857317 L154.464347,19.3917261 C154.855183,19.6130872 155.118227,19.9857539 155.224936,20.4693539 C155.380267,21.1734483 155.09951,21.8442483 155.040562,21.9843594 C154.642339,22.9301094 153.833343,23.3734094 152.975151,23.8437206 C152.789199,23.9456261 151.212514,25.0967761 150.807837,25.3684039 L152.179351,25.3684039 L154.526235,25.3684039 C155.053112,25.3684039 155.508203,25.5576983 155.891367,25.9351317 C156.27453,26.3131428 156.466076,26.7756539 156.466076,27.3218706 L156.466076,32.458965 C156.466076,32.9254483 156.298339,33.3271483 155.963223,33.6648594 C155.627892,34.0026428 155.228522,34.1712817 154.765829,34.1712817 L152.754131,34.1712817 L152.754131,42.6606428 C152.754131,42.9339317 152.853669,43.1671372 153.053606,43.360115 C153.25304,43.5530206 153.488259,43.6496539 153.759908,43.6496539 L154.933422,43.6496539 C155.523837,43.6496539 155.982873,43.5169817 156.310315,43.2516372 Z M140.205851,30.21341 L140.205851,44.9999711 L138.265939,44.9999711 L138.265939,21.7266489 L140.205851,21.7266489 L140.205851,26.8396211 L140.205851,27.9730767 L140.205851,29.1125267 L141.419524,28.7569044 L142.699963,33.1895433 L141.193126,33.6309656 L140.205851,30.21341 Z M192.357524,39.7423017 C192.860448,39.3245683 193.311308,38.8741183 193.710607,38.3916739 L183.677938,38.3916739 L183.677938,37.5234906 L194.045723,37.5234906 L194.093627,37.5234906 L194.093627,34.4606183 L183.677938,34.4606183 L183.677938,33.5925072 L194.093627,33.5925072 L194.093627,30.577735 L185.185563,30.577735 L185.185563,29.7338183 L194.093627,29.7338183 L194.093627,26.7432406 L183.677938,26.7432406 L183.677938,25.8749128 L196.080296,25.8749128 C196.639372,25.4871517 198.138535,24.363735 198.57699,23.9628294 C199.034233,23.5451683 199.441348,23.065685 199.787436,22.5373794 C199.954886,22.2591072 200.085547,22.0017794 200.175547,21.7723294 C200.263468,21.5470683 200.263755,21.425085 200.25601,21.372435 C200.248838,21.3241183 200.173037,21.2804961 200.140838,21.2640294 C200.068193,21.2271239 199.922759,21.182635 199.648456,21.182635 C199.58793,21.182635 199.524177,21.1847294 199.456982,21.1889906 C198.833723,21.2334794 198.162631,21.414035 197.464288,21.7254572 C196.738049,22.0501683 195.983914,22.4019628 195.223324,22.7710906 C194.452838,23.1455628 193.654312,23.5067461 192.849906,23.8446017 C192.021763,24.1926406 191.185874,24.3995572 190.365619,24.4594294 C190.235531,24.4688906 190.103794,24.4738017 189.974209,24.4738017 C189.27479,24.4738017 188.573006,24.3330406 187.888288,24.0554906 C187.06538,23.7226183 186.260257,23.0713183 185.495292,22.1197183 L185.236336,21.7977517 L185.819221,21.1687683 C186.316265,20.6325906 186.94899,20.3372739 187.601077,20.3372739 C188.134623,20.3372739 188.654543,20.5323461 189.104615,20.9014739 C189.529802,21.240485 190.02828,21.5524128 190.589938,21.8317683 C191.090424,22.0813683 191.635874,22.2078294 192.211444,22.2078294 C192.258703,22.2078294 192.306249,22.207035 192.354081,22.2053017 C193.284559,22.1833461 194.194958,21.9682683 195.06283,21.5660628 C195.961755,21.1489072 196.833786,20.7157906 197.6544,20.2788461 C198.498822,19.8292628 199.322161,19.4753739 200.101683,19.2270017 C200.455085,19.1142628 200.807269,19.0570628 201.148336,19.0570628 C201.605938,19.0570628 202.057014,19.159835 202.489085,19.3624906 C203.000328,19.6176517 203.343691,20.0124183 203.515802,20.539135 C203.693077,21.0820294 203.636567,21.6881906 203.347707,22.3407183 C203.081938,22.9400906 202.609133,23.5294239 201.902113,24.1428072 C201.22299,24.7323572 200.283476,25.2961961 199.109962,25.818435 L199.002966,25.8749128 L206.605994,25.8749128 L206.605994,26.7432406 L196.225085,26.7432406 L196.225085,29.7338183 L204.965555,29.7338183 L204.965555,30.577735 L196.225085,30.577735 L196.225085,33.5925072 L206.605994,33.5925072 L206.605994,34.4606183 L196.225085,34.4606183 L196.225085,37.5234906 L206.639125,37.7016628 L206.639125,38.5698461 L196.248894,38.3916739 C196.919555,38.9704628 197.665587,39.513285 198.487994,40.0197072 C199.310041,40.5262017 200.176193,40.9805517 201.086376,41.3821794 C201.996416,41.784385 202.946041,42.1258517 203.936113,42.4071572 C204.925683,42.6883183 205.923571,42.9018072 206.929563,43.0463239 L206.378663,44.9758128 C205.069396,44.7346628 203.88828,44.4248294 202.834456,44.0473239 C201.780775,43.669385 200.822902,43.2311406 199.960838,42.7328072 C199.098631,42.2342572 198.312153,41.6838517 197.601978,41.0807961 C196.891372,40.4780294 196.225085,39.8388628 195.602472,39.1634406 C195.139061,39.7264128 194.572671,40.2889517 193.90201,40.8517794 C193.231563,41.4148239 192.417404,41.9530961 191.45946,42.4674628 C190.501516,42.9818294 189.376049,43.4522128 188.083061,43.8783961 C186.789715,44.3042906 185.296862,44.6701683 183.604647,44.9758128 L183.437125,44.0591683 C184.793938,43.6891017 186.111022,43.2311406 187.388304,42.684635 C187.930886,42.443485 188.493691,42.1782128 189.07679,41.8886739 C189.659388,41.5993517 190.22628,41.2737017 190.777037,40.9120128 C191.327794,40.5501794 191.854599,40.1605406 192.357524,39.7423017 Z M169.318972,22.4123917 C167.868359,21.3965861 167.055203,20.0478361 167.502622,19.3997861 C167.95004,18.7516639 169.488645,19.0497972 170.939259,20.0655306 C172.389801,21.0813361 173.203028,22.4301583 172.75561,23.0782083 C172.308191,23.7262583 170.769586,23.428125 169.318972,22.4123917 Z M161.901882,26.5261261 L161.901882,30.5561261 L159.770639,30.5561261 L159.770639,24.6448094 L161.901882,24.6448094 L161.901882,25.5132094 C162.252918,25.288165 162.6444,25.087315 163.075468,24.9101539 C163.506464,24.7334983 163.953165,24.6448094 164.416575,24.6448094 L170.498998,24.6448094 L171.576631,24.6448094 L179.791014,24.6448094 C180.732607,25.1053706 181.203476,25.7662039 181.203476,26.6224706 L181.203476,30.5561261 L179.048209,30.5561261 L179.048209,26.0920706 C179.048209,25.9151983 178.984241,25.7627372 178.856591,25.6337483 C178.728798,25.505265 178.577269,25.4408428 178.401643,25.4408428 L164.799739,25.4408428 C164.192543,25.4408428 163.638201,25.5655706 163.135276,25.8145928 C162.632424,26.0641206 162.221077,26.3010094 161.901882,26.5261261 Z M180.308316,42.6364844 C180.595886,42.2505289 180.803137,41.8164733 180.931002,41.3340289 L181.86485,41.6475456 C181.641105,42.5317622 181.30599,43.2032122 180.859073,43.6614622 C180.412085,44.1197844 179.972986,44.4453622 179.54199,44.63834 C179.015328,44.8630956 178.472173,44.9758344 177.913599,44.9758344 L175.925926,44.9758344 C175.478938,44.9758344 175.055543,44.8915511 174.656675,44.7225511 C174.257591,44.55384 173.910213,44.3245344 173.615113,44.0352844 C173.319512,43.7459622 173.088165,43.4040622 172.920643,43.0103067 C172.753049,42.6162622 172.669217,42.1944844 172.669217,41.7441789 L172.669217,35.61829 L168.334587,35.61829 C168.30246,36.6474567 168.134938,37.6122733 167.831735,38.5124511 C167.528316,39.41299 167.045257,40.2571233 166.382914,41.0447067 C165.720356,41.83229 164.854133,42.5519844 163.784603,43.2032122 C162.714858,43.85444 161.389958,44.4453622 159.8094,44.9758344 L159.450261,44.1076511 C161.701265,43.2232178 163.349448,42.1018956 164.395456,40.7433233 C165.440675,39.3848233 166.011798,37.6766956 166.107679,35.61829 L159.689711,35.61829 L159.689711,34.8465233 L181.266261,34.8465233 L181.266261,35.61829 L174.824484,35.61829 L174.824484,42.5883122 C174.824484,42.9578733 174.947902,43.27139 175.195671,43.52879 C175.442866,43.7857567 175.750014,43.9146733 176.117543,43.9146733 L177.602364,43.9146733 C178.288516,43.9146733 178.851249,43.7820011 179.290563,43.5167289 C179.729448,43.2513844 180.068938,42.9578733 180.308316,42.6364844 Z M162.589554,30.35875 L162.589554,29.5630056 L178.370964,29.5630056 L178.370964,30.35875 L162.589554,30.35875 Z M135,36.6934852 L136.483701,29 L138,29.3065148 L136.516299,37 L135,36.6934852 Z" id="Combined-Shape"></path>
            </g>
        </g>
    </g>
</svg>